# xmcd
#
# Track frame offsets:
#	182
#	14800
#	28315
#	48052
#	62267
#	73925
#	87450
#	102952
#	115790
#	129207
#
# Disc length: 1909 seconds
#
# Revision: 1
# Processed by: cddbd v1.5.2PL0 Copyright (c) Steve Scherf et al.
# Submitted via: audiograbber 1.83.01
#
DISCID=8307730a
DTITLE=Georges Hamel - Ma Vie D'une Ville à L'autre
DYEAR=1994
DGENRE=Country
TTITLE0=Ma Vie D'une Ville à L'autre(Georges Hamel-Georges Hamel)
TTITLE1=L'amour Donne Des Ailes(Denis Champoux-Denis Champoux)
TTITLE2=J'écrirai Des Chansons(Gilles Guillot-Gilles Guillot)
TTITLE3=A Toi Qui Vient De Naître(Denis Champoux-Denis Champoux)
TTITLE4=Dans Son Jardin(Denis Champoux-Denis Champoux)
TTITLE5=Nos Amours Déchirés(Georges Hamel-Georges Hamel)
TTITLE6=Vous Vous Êtes Tant Aimés(Denis Champoux-Denis Champoux)
TTITLE7=Le Feu De Jeunesse(Gerry et Chantal Boudreau)
TTITLE8=Le Clown De Ton Coeur(Denis Champoux-Denis Champoux)
TTITLE9=Au Bar Country(Denis Champoux-Denis Champoux)
EXTD=
EXTT0=
EXTT1=
EXTT2=
EXTT3=
EXTT4=
EXTT5=
EXTT6=
EXTT7=
EXTT8=
EXTT9=
PLAYORDER=
